<svg xmlns="http://www.w3.org/2000/svg" viewBox="0 0 351.88 767.61"><defs><style>.cls-1{fill-rule:evenodd;}</style></defs><g id="Layer_2" data-name="Layer 2"><g id="Layer_1-2" data-name="Layer 1"><path class="cls-1" d="M34.84,592.8l-5.73,13.5a5,5,0,0,1-1.31,1.83,5.13,5.13,0,1,1,.43-7.24l3.91-9.23a3.52,3.52,0,0,0,.15-.42,2.94,2.94,0,0,0-2.12-3.57L20.1,585.11a2.94,2.94,0,0,0-3.42,1.7L9.85,602.9A5.13,5.13,0,1,1,9,597.49l5-11.83a5.87,5.87,0,0,1,6.84-3.39l10.07,2.56a5.84,5.84,0,0,1,4,8Z"/><path class="cls-1" d="M280.19,530.52a2.31,2.31,0,0,1-2.49,2.12l-4.5-.21-1.59,6.39a3.25,3.25,0,0,1-.79,1.43,3.14,3.14,0,1,1-.08-4.45l1.54-6.15a2.36,2.36,0,0,1,2.39-1.78l3.26.15h.15A2.3,2.3,0,0,1,280.19,530.52Z"/><path class="cls-1" d="M176,135.31l-1.42,9a3.07,3.07,0,0,1-.52,1.3,3.18,3.18,0,1,1-.83-4.42l1-6.15a2.64,2.64,0,0,0,0-.28,1.81,1.81,0,0,0-1.82-1.82l-6.44,0a1.82,1.82,0,0,0-1.8,1.53l-1.7,10.72a3.18,3.18,0,1,1-1.34-3.13l1.24-7.87a3.65,3.65,0,0,1,3.62-3.07l6.44,0a3.29,3.29,0,0,1,.54.05A3.63,3.63,0,0,1,176,135.31Z"/><path class="cls-1" d="M57.46,3.12A2,2,0,0,1,55,4.66l-3.88-.88L48.78,9.1a2.86,2.86,0,0,1-.9,1.11,2.77,2.77,0,1,1,.61-3.87l2.27-5.11A2.08,2.08,0,0,1,53.12.05l2.8.63A2,2,0,0,1,57.46,3.12Z"/><path class="cls-1" d="M192.41,606.75a2,2,0,1,1-1.62-1.39l-1.15-3.74a.44.44,0,0,0-.06-.16,1.15,1.15,0,0,0-1.53-.54l-3.65,1.76a1.16,1.16,0,0,0-.6,1.37l2,6.52a2,2,0,1,1-3.89.3,2,2,0,0,1,2.27-1.69l-1.47-4.8a2.29,2.29,0,0,1,1.19-2.73l3.66-1.76.32-.13a2.29,2.29,0,0,1,2.86,1.52Z"/><path class="cls-1" d="M351.87,311.58a2.47,2.47,0,1,1-2.58-2.36L347,305a.94.94,0,0,0-.12-.18,1.42,1.42,0,0,0-2-.29l-4,3a1.41,1.41,0,0,0-.41,1.79l4,7.43a2.38,2.38,0,0,1,.28,1,2.47,2.47,0,1,1-2.57-2.35l-2.9-5.46a2.81,2.81,0,0,1,.8-3.58l4-3a2.06,2.06,0,0,1,.37-.23,2.82,2.82,0,0,1,3.81,1.16l3.31,6.23A2.53,2.53,0,0,1,351.87,311.58Z"/><path class="cls-1" d="M283.38,23.19a2,2,0,0,1-.93,2.73l-3.56,1.76,1.5,5.62a2.67,2.67,0,0,1,0,1.43,2.77,2.77,0,1,1-1.95-3.39L277,25.94a2.09,2.09,0,0,1,1.08-2.41l2.58-1.27A2,2,0,0,1,283.38,23.19Z"/><path class="cls-1" d="M347.11,672.89a2.89,2.89,0,1,1-3.43-2.23l-3.91-4.34a2.17,2.17,0,0,1-.12-2.75l1.79-2.41a2.13,2.13,0,0,1,3.41,2.54L342.37,667l4.06,4.51A2.86,2.86,0,0,1,347.11,672.89Z"/><path class="cls-1" d="M40,401.66a3.53,3.53,0,0,1,.63,1.74,3.58,3.58,0,1,1-3.88-3.25l-4.15-5.93a2.69,2.69,0,0,1,.25-3.4l2.57-2.69.06-.05a2.63,2.63,0,1,1,3.75,3.69l-3.55,3.73Z"/><path class="cls-1" d="M53.3,215.5a2.13,2.13,0,0,1-2.42,1.78l-4.11-.63-2.07,5.7a2.9,2.9,0,0,1-4.94.88,2.89,2.89,0,1,1,4.43-3.72l2-5.49a2.16,2.16,0,0,1,2.37-1.4l3,.45A2.13,2.13,0,0,1,53.3,215.5Z"/><path class="cls-1" d="M149.5,759a2.61,2.61,0,0,1,.09,1.18,2.69,2.69,0,1,1-2.27-3.06l-1.54-5a1.43,1.43,0,0,0-.08-.22,1.53,1.53,0,0,0-2-.72l-4.91,2.37a1.53,1.53,0,0,0-.8,1.83l2.68,8.76a2.62,2.62,0,0,1,.09,1.18,2.69,2.69,0,1,1-2.27-3l-2-6.44a3.08,3.08,0,0,1,1.61-3.67l4.9-2.36a2.35,2.35,0,0,1,.44-.17,3.07,3.07,0,0,1,3.84,2Z"/></g></g></svg>